<svg width="197" height="65" viewBox="0 0 197 65" fill="none" xmlns="http://www.w3.org/2000/svg">
<rect y="0.666992" width="197" height="64" rx="12" fill="white" fill-opacity="0.85"/>
<rect x="0.5" y="1.16699" width="196" height="63" rx="11.5" stroke="#333333" stroke-opacity="0.5"/>
<path d="M51.7971 31.3938C51.7633 27.36 55.0986 25.3994 55.245 25.3093C53.3521 22.56 50.4225 22.1769 49.3971 22.1431C46.9408 21.8839 44.5521 23.6191 43.3014 23.6191C42.0281 23.6191 40.0901 22.1769 38.0169 22.2107C35.3464 22.2558 32.8338 23.7994 31.4704 26.2107C28.6422 31.1121 30.7493 38.3234 33.4647 42.2896C34.8281 44.2276 36.4056 46.4023 38.4901 46.3234C40.5183 46.2445 41.2845 45.0276 43.7295 45.0276C46.1633 45.0276 46.8732 46.3234 48.9915 46.2783C51.1774 46.2445 52.5408 44.329 53.8591 42.3684C55.4253 40.1487 56.0563 37.9515 56.0788 37.8389C56.0225 37.8163 51.8422 36.2163 51.7971 31.3938Z" fill="black"/>
<path d="M47.7974 19.5403C48.8903 18.1769 49.634 16.3178 49.4312 14.4248C47.8537 14.4924 45.8706 15.5178 44.7326 16.8586C43.7298 18.0417 42.8284 19.9685 43.0537 21.7826C44.834 21.9178 46.6593 20.8811 47.7974 19.5403Z" fill="black"/>
<path d="M81.2282 46.0417H78.3887L76.8338 41.1515H71.4253L69.9493 46.0417H67.1887L72.5408 29.3994H75.8535L81.2282 46.0417ZM76.3718 39.1008L74.9634 34.7628C74.8169 34.3121 74.5352 33.2755 74.1296 31.6304H74.0732C73.9042 32.3403 73.6451 33.3881 73.2845 34.7628L71.8986 39.1008H76.3718Z" fill="black"/>
<path d="M94.9861 39.9007C94.9861 41.9402 94.434 43.5515 93.3185 44.7346C92.3269 45.7937 91.0875 46.312 89.6227 46.312C88.034 46.312 86.896 45.7486 86.1974 44.6106V50.9092H83.5269V37.9853C83.5269 36.7007 83.4931 35.3937 83.4255 34.0416H85.7692L85.9157 35.9458H85.9607C86.8509 34.5148 88.203 33.7937 90.0058 33.7937C91.4255 33.7937 92.5974 34.3571 93.5439 35.4726C94.5129 36.5993 94.9861 38.0641 94.9861 39.9007ZM92.2706 39.9909C92.2706 38.8191 92.0115 37.8613 91.4819 37.1064C90.9072 36.3176 90.1298 35.9233 89.1607 35.9233C88.5072 35.9233 87.91 36.1486 87.3692 36.5768C86.8396 37.0162 86.4791 37.5796 86.3213 38.2895C86.2424 38.6162 86.1974 38.8867 86.1974 39.1007V41.1064C86.1974 41.974 86.4678 42.7176 86.9974 43.3148C87.5269 43.912 88.2255 44.2162 89.0819 44.2162C90.0847 44.2162 90.8622 43.8219 91.4255 43.0557C91.9889 42.2782 92.2706 41.2641 92.2706 39.9909Z" fill="black"/>
<path d="M108.778 39.9007C108.778 41.9402 108.225 43.5515 107.11 44.7346C106.118 45.7937 104.879 46.312 103.414 46.312C101.825 46.312 100.687 45.7486 99.9889 44.6106V50.9092H97.3184V37.9853C97.3184 36.7007 97.2846 35.3937 97.217 34.0416H99.5607L99.7072 35.9458H99.7523C100.642 34.5148 101.995 33.7937 103.797 33.7937C105.217 33.7937 106.389 34.3571 107.335 35.4726C108.304 36.5993 108.778 38.0641 108.778 39.9007ZM106.062 39.9909C106.062 38.8191 105.803 37.8613 105.273 37.1064C104.699 36.3176 103.921 35.9233 102.952 35.9233C102.299 35.9233 101.702 36.1486 101.161 36.5768C100.631 37.0162 100.282 37.5796 100.113 38.2895C100.034 38.6162 99.9889 38.8867 99.9889 39.1007V41.1064C99.9889 41.974 100.259 42.7176 100.789 43.3148C101.318 43.912 102.017 44.2162 102.873 44.2162C103.876 44.2162 104.665 43.8219 105.217 43.0557C105.792 42.2782 106.062 41.2641 106.062 39.9909Z" fill="black"/>
<path d="M124.214 41.3769C124.214 42.7966 123.718 43.9459 122.738 44.8361C121.656 45.8051 120.147 46.2896 118.209 46.2896C116.417 46.2896 114.986 45.9403 113.904 45.253L114.524 43.0333C115.696 43.7206 116.98 44.0699 118.378 44.0699C119.38 44.0699 120.169 43.8445 120.721 43.3938C121.285 42.9431 121.566 42.3347 121.566 41.5797C121.566 40.9037 121.33 40.3403 120.879 39.8783C120.417 39.4164 119.651 38.9882 118.58 38.5938C115.64 37.5009 114.186 35.9121 114.186 33.8276C114.186 32.4643 114.704 31.3488 115.73 30.4699C116.755 29.6023 118.118 29.1628 119.82 29.1628C121.33 29.1628 122.592 29.422 123.594 29.9516L122.918 32.115C121.972 31.6079 120.913 31.3488 119.718 31.3488C118.783 31.3488 118.04 31.5854 117.51 32.0361C117.07 32.453 116.845 32.9488 116.845 33.5459C116.845 34.1995 117.104 34.7516 117.611 35.1685C118.051 35.5628 118.862 35.991 120.034 36.453C121.465 37.0276 122.513 37.7037 123.189 38.4812C123.876 39.2586 124.214 40.2276 124.214 41.3769Z" fill="black"/>
<path d="M133.048 36.0475H130.107V41.8728C130.107 43.3489 130.625 44.0925 131.662 44.0925C132.135 44.0925 132.53 44.0475 132.845 43.9686L132.924 45.9968C132.394 46.1883 131.707 46.2897 130.851 46.2897C129.792 46.2897 128.98 45.963 128.383 45.3207C127.786 44.6784 127.493 43.5968 127.493 42.0869V36.0362H125.747V34.0418H127.493V31.8446L130.107 31.0559V34.0418H133.048V36.0475Z" fill="black"/>
<path d="M146.276 39.9458C146.276 41.7937 145.747 43.3035 144.699 44.4866C143.595 45.7035 142.13 46.312 140.304 46.312C138.547 46.312 137.138 45.7261 136.09 44.5655C135.042 43.4049 134.524 41.9289 134.524 40.1486C134.524 38.2894 135.065 36.7683 136.135 35.5852C137.217 34.4021 138.671 33.8049 140.496 33.8049C142.254 33.8049 143.673 34.3908 144.744 35.5627C145.769 36.6894 146.276 38.1542 146.276 39.9458ZM143.516 40.0021C143.516 38.8979 143.279 37.9627 142.806 37.1739C142.242 36.2162 141.442 35.743 140.406 35.743C139.335 35.743 138.513 36.2162 137.961 37.1739C137.476 37.9627 137.251 38.9204 137.251 40.0585C137.251 41.1627 137.488 42.1092 137.961 42.8866C138.535 43.8444 139.347 44.3176 140.383 44.3176C141.397 44.3176 142.197 43.8331 142.783 42.8641C143.268 42.0528 143.516 41.1063 143.516 40.0021Z" fill="black"/>
<path d="M154.952 36.3853C154.693 36.3402 154.411 36.3176 154.107 36.3176C153.172 36.3176 152.439 36.6669 151.932 37.3768C151.493 37.9965 151.268 38.7965 151.268 39.743V46.0416H148.597V37.8162C148.597 36.4303 148.575 35.1683 148.518 34.0416H150.839L150.941 36.3402H151.02C151.301 35.5514 151.741 34.9092 152.349 34.436C152.946 34.0078 153.589 33.7937 154.276 33.7937C154.524 33.7937 154.749 33.8162 154.941 33.8388L154.952 36.3853Z" fill="black"/>
<path d="M166.873 39.4727C166.873 39.9459 166.84 40.3516 166.772 40.6783H158.772C158.806 41.8614 159.189 42.7741 159.932 43.3938C160.609 43.9459 161.476 44.2276 162.547 44.2276C163.73 44.2276 164.811 44.0361 165.78 43.6642L166.197 45.5121C165.059 46.0079 163.718 46.2558 162.175 46.2558C160.316 46.2558 158.851 45.7037 157.792 44.6107C156.732 43.5178 156.203 42.0417 156.203 40.2051C156.203 38.4023 156.699 36.8924 157.69 35.6868C158.727 34.4023 160.124 33.76 161.882 33.76C163.606 33.76 164.924 34.4023 165.803 35.6868C166.513 36.7234 166.873 37.9741 166.873 39.4727ZM164.327 38.7854C164.349 37.9966 164.169 37.3093 163.809 36.7347C163.347 35.991 162.637 35.6192 161.69 35.6192C160.823 35.6192 160.113 35.9797 159.572 36.7009C159.132 37.2755 158.862 37.9741 158.783 38.7741L164.327 38.7854Z" fill="black"/>
<path d="M75.0875 23.4503H73.6903L72.9241 21.0503H70.2649L69.5325 23.4503H68.1804L70.8058 15.27H72.4283L75.0875 23.4503ZM72.6875 20.0362L72.0001 17.8954C71.9325 17.6813 71.7973 17.163 71.5832 16.3517H71.5607C71.4706 16.701 71.3579 17.208 71.1663 17.8954L70.4903 20.0362H72.6875Z" fill="black"/>
<path d="M81.6679 17.5461L79.4369 23.4504H78.1636L76.0002 17.5461H77.4087L78.4115 20.6673C78.5805 21.1856 78.727 21.6814 78.8397 22.1546H78.8735C78.9749 21.7264 79.1214 21.2307 79.3017 20.6673L80.2932 17.5461H81.6679Z" fill="black"/>
<path d="M86.4227 23.45L86.3213 22.7739H86.2875C85.8819 23.3148 85.3072 23.5852 84.5636 23.5852C83.5044 23.5852 82.7607 22.8415 82.7607 21.85C82.7607 20.3965 84.0227 19.6415 86.2086 19.6415V19.5288C86.2086 18.7514 85.7917 18.3683 84.9805 18.3683C84.3945 18.3683 83.8875 18.5148 83.4368 18.8077L83.1664 17.9514C83.7072 17.6134 84.3945 17.4443 85.1945 17.4443C86.7382 17.4443 87.5157 18.2556 87.5157 19.8894V22.0641C87.5157 22.6612 87.5382 23.1232 87.6058 23.4725L86.4227 23.45ZM86.2424 20.5091C84.7889 20.5091 84.0565 20.8584 84.0565 21.7035C84.0565 22.3232 84.4283 22.6274 84.9579 22.6274C85.6227 22.6274 86.2424 22.1204 86.2424 21.4218V20.5091Z" fill="black"/>
<path d="M90.434 16.5767C89.9945 16.5767 89.6565 16.2387 89.6565 15.788C89.6565 15.3373 90.0058 15.0105 90.4565 15.0105C90.9072 15.0105 91.2678 15.3373 91.2565 15.788C91.2565 16.2612 90.9185 16.5767 90.434 16.5767ZM89.803 17.5457H91.11V23.4387H89.803V17.5457Z" fill="black"/>
<path d="M93.4424 14.8416H94.7494V23.4387H93.4424V14.8416Z" fill="black"/>
<path d="M100.316 23.4503L100.214 22.7742H100.18C99.7747 23.315 99.2 23.5855 98.4564 23.5855C97.3972 23.5855 96.6536 22.8418 96.6536 21.8503C96.6536 20.3967 97.9155 19.6418 100.101 19.6418V19.5291C100.101 18.7517 99.6846 18.3686 98.8733 18.3686C98.2874 18.3686 97.7803 18.515 97.3296 18.808L97.0592 17.9404C97.6 17.6024 98.2874 17.4333 99.0874 17.4333C100.631 17.4333 101.408 18.2446 101.408 19.8784V22.0531C101.408 22.6503 101.431 23.1122 101.487 23.4615H100.316V23.4503ZM100.135 20.5094C98.6817 20.5094 97.9493 20.8587 97.9493 21.7038C97.9493 22.3235 98.3212 22.6277 98.8507 22.6277C99.5155 22.6277 100.135 22.1207 100.135 21.4221V20.5094Z" fill="black"/>
<path d="M106.727 23.5852C105.893 23.5852 105.273 23.2359 104.868 22.5373H104.845L104.766 23.45H103.651C103.685 22.9768 103.696 22.4472 103.696 21.8613V14.8416H105.014V18.4134H105.037C105.431 17.7599 106.051 17.4331 106.918 17.4331C108.338 17.4331 109.33 18.65 109.33 20.419C109.33 22.2444 108.226 23.5852 106.727 23.5852ZM106.457 18.4585C105.702 18.4585 105.014 19.112 105.014 20.0247V21.0613C105.014 21.8725 105.634 22.5373 106.434 22.5373C107.414 22.5373 108 21.7373 108 20.4641C108 19.2697 107.392 18.4585 106.457 18.4585Z" fill="black"/>
<path d="M111.268 14.8416H112.575V23.4387H111.268V14.8416Z" fill="black"/>
<path d="M119.707 20.8135H115.775C115.797 21.929 116.541 22.5599 117.634 22.5599C118.22 22.5599 118.749 22.4585 119.223 22.2783L119.425 23.1909C118.873 23.4388 118.22 23.5515 117.454 23.5515C115.606 23.5515 114.513 22.3909 114.513 20.5768C114.513 18.774 115.628 17.4106 117.307 17.4106C118.806 17.4106 119.763 18.5261 119.763 20.2163C119.763 20.4529 119.752 20.6557 119.707 20.8135ZM118.513 19.8783C118.513 18.9656 118.051 18.3233 117.217 18.3233C116.462 18.3233 115.876 18.9768 115.786 19.8783H118.513Z" fill="black"/>
<path d="M127.651 23.5855C125.927 23.5855 124.812 22.301 124.812 20.5545C124.812 18.7291 125.95 17.4333 127.752 17.4333C129.454 17.4333 130.592 18.6615 130.592 20.4531C130.592 22.2897 129.42 23.5855 127.651 23.5855ZM127.707 18.3911C126.761 18.3911 126.152 19.2812 126.152 20.5094C126.152 21.7263 126.772 22.6052 127.696 22.6052C128.62 22.6052 129.24 21.6587 129.24 20.4756C129.228 19.2812 128.631 18.3911 127.707 18.3911Z" fill="black"/>
<path d="M137.634 23.45H136.327V20.0585C136.327 19.0106 135.921 18.4923 135.133 18.4923C134.355 18.4923 133.826 19.1571 133.826 19.9346V23.4388H132.518V19.236C132.518 18.7177 132.507 18.1543 132.473 17.5458H133.623L133.679 18.4585H133.713C134.062 17.8275 134.783 17.4219 135.583 17.4219C136.823 17.4219 137.634 18.3684 137.634 19.912V23.45Z" fill="black"/>
<path d="M146.209 18.5376H144.766V21.3996C144.766 22.132 145.025 22.4926 145.532 22.4926C145.758 22.4926 145.961 22.47 146.118 22.4362L146.152 23.4278C145.893 23.5292 145.555 23.5743 145.138 23.5743C144.102 23.5743 143.493 22.9996 143.493 21.5123V18.5376H142.637V17.5574H143.493V16.4757L144.778 16.0813V17.5461H146.22V18.5376" fill="black"/>
<path d="M153.149 23.45H151.842V20.081C151.842 19.0218 151.437 18.4923 150.648 18.4923C149.972 18.4923 149.341 18.9542 149.341 19.8894V23.4387H148.034V14.8416H149.341V18.3796H149.364C149.78 17.7373 150.366 17.4218 151.133 17.4218C152.383 17.4218 153.149 18.3909 153.149 19.9345V23.45Z" fill="black"/>
<path d="M159.842 20.8135H155.91C155.932 21.929 156.676 22.5599 157.769 22.5599C158.355 22.5599 158.885 22.4585 159.358 22.2783L159.561 23.1909C159.009 23.4388 158.355 23.5515 157.589 23.5515C155.741 23.5515 154.648 22.3909 154.648 20.5768C154.648 18.774 155.763 17.4106 157.442 17.4106C158.941 17.4106 159.899 18.5261 159.899 20.2163C159.899 20.4529 159.887 20.6557 159.842 20.8135ZM158.648 19.8783C158.648 18.9656 158.186 18.3233 157.352 18.3233C156.597 18.3233 156 18.9768 155.921 19.8783H158.648Z" fill="black"/>
</svg>
