<svg width="23" height="23" viewBox="0 0 23 23" fill="none" xmlns="http://www.w3.org/2000/svg">
<path fill-rule="evenodd" clip-rule="evenodd" d="M11.4999 19.0005C15.55 19.0005 18.8333 15.7173 18.8333 11.6672C18.8333 7.61707 15.55 4.33382 11.4999 4.33382C7.44983 4.33382 4.16659 7.61707 4.16659 11.6672C4.16659 15.7173 7.44983 19.0005 11.4999 19.0005ZM11.4999 20.8338C16.5625 20.8338 20.6666 16.7297 20.6666 11.6672C20.6666 6.60454 16.5625 2.50049 11.4999 2.50049C6.43731 2.50049 2.33325 6.60454 2.33325 11.6672C2.33325 16.7297 6.43731 20.8338 11.4999 20.8338Z" fill="#333333" fill-opacity="0.5"/>
<path d="M11.4999 9.8335C11.4999 9.32724 11.9103 8.91683 12.4166 8.91683H13.3333C13.8395 8.91683 14.2499 8.50643 14.2499 8.00016C14.2499 7.49391 13.8395 7.0835 13.3333 7.0835H12.4166C10.8978 7.0835 9.66659 8.31472 9.66659 9.8335V11.6668H8.74992C8.24366 11.6668 7.83325 12.0772 7.83325 12.5835C7.83325 13.0898 8.24365 13.5002 8.74992 13.5002H9.66659V19.0002C9.66659 19.5064 10.077 19.9168 10.5833 19.9168C11.0895 19.9168 11.4999 19.5064 11.4999 19.0002V13.5002H13.3333C13.8395 13.5002 14.2499 13.0898 14.2499 12.5835C14.2499 12.0772 13.8395 11.6668 13.3333 11.6668H11.4999V9.8335Z" fill="#333333" fill-opacity="0.5"/>
</svg>
