<svg width="124" height="41" viewBox="0 0 124 41" fill="none" xmlns="http://www.w3.org/2000/svg">
<rect x="0.365479" y="0.666992" width="123" height="39.9594" rx="7.49239" fill="white" fill-opacity="0.85"/>
<rect x="0.677661" y="0.979175" width="122.376" height="39.335" rx="7.1802" stroke="#333333" stroke-opacity="0.5" stroke-width="0.624366"/>
<path d="M32.705 19.8519C32.6839 17.3333 34.7663 16.1092 34.8578 16.0529C33.6759 14.3363 31.8468 14.0972 31.2066 14.076C29.6729 13.9142 28.1815 14.9976 27.4006 14.9976C26.6056 14.9976 25.3956 14.0972 24.1011 14.1183C22.4338 14.1464 20.865 15.1102 20.0137 16.6157C18.2479 19.676 19.5635 24.1785 21.2589 26.6548C22.1102 27.8649 23.0951 29.2226 24.3966 29.1734C25.6629 29.1241 26.1413 28.3643 27.6679 28.3643C29.1875 28.3643 29.6307 29.1734 30.9533 29.1452C32.3181 29.1241 33.1694 27.9282 33.9925 26.7041C34.9704 25.3181 35.3643 23.9463 35.3784 23.8759C35.3432 23.8619 32.7332 22.8629 32.705 19.8519Z" fill="black"/>
<path d="M30.207 12.4513C30.8894 11.6 31.3537 10.4392 31.2271 9.25732C30.2421 9.29953 29.004 9.93973 28.2934 10.7769C27.6673 11.5156 27.1045 12.7186 27.2452 13.8513C28.3567 13.9357 29.4964 13.2884 30.207 12.4513Z" fill="black"/>
<path d="M51.0812 28.9966H49.3083L48.3375 25.9433H44.9606L44.039 28.9966H42.3154L45.6571 18.6057H47.7254L51.0812 28.9966ZM48.049 24.6629L47.1697 21.9544C47.0782 21.673 46.9023 21.0258 46.6491 19.9987H46.6139C46.5084 20.4419 46.3465 21.0961 46.1214 21.9544L45.2561 24.6629H48.049Z" fill="black"/>
<path d="M59.6721 25.1626C59.6721 26.436 59.3274 27.442 58.6309 28.1807C58.0118 28.842 57.238 29.1656 56.3234 29.1656C55.3315 29.1656 54.6209 28.8139 54.1847 28.1033V32.0359H52.5174V23.9667C52.5174 23.1647 52.4963 22.3486 52.4541 21.5044H53.9174L54.0089 22.6933H54.037C54.5928 21.7999 55.437 21.3496 56.5626 21.3496C57.449 21.3496 58.1807 21.7014 58.7716 22.3978C59.3766 23.1014 59.6721 24.0159 59.6721 25.1626ZM57.9767 25.2189C57.9767 24.4873 57.8149 23.8893 57.4842 23.4179C57.1254 22.9255 56.64 22.6792 56.035 22.6792C55.6269 22.6792 55.2541 22.8199 54.9164 23.0873C54.5857 23.3616 54.3606 23.7134 54.2621 24.1566C54.2129 24.3606 54.1847 24.5295 54.1847 24.6631V25.9154C54.1847 26.4571 54.3536 26.9214 54.6842 27.2943C55.0149 27.6671 55.4511 27.8571 55.9857 27.8571C56.6118 27.8571 57.0973 27.6109 57.449 27.1325C57.8008 26.647 57.9767 26.0139 57.9767 25.2189Z" fill="black"/>
<path d="M68.2815 25.1626C68.2815 26.436 67.9368 27.442 67.2403 28.1807C66.6212 28.842 65.8473 29.1656 64.9328 29.1656C63.9408 29.1656 63.2303 28.8139 62.7941 28.1033V32.0359H61.1268V23.9667C61.1268 23.1647 61.1057 22.3486 61.0635 21.5044H62.5268L62.6182 22.6933H62.6464C63.2021 21.7999 64.0464 21.3496 65.172 21.3496C66.0584 21.3496 66.7901 21.7014 67.381 22.3978C67.986 23.1014 68.2815 24.0159 68.2815 25.1626ZM66.586 25.2189C66.586 24.4873 66.4242 23.8893 66.0936 23.4179C65.7348 22.9255 65.2494 22.6792 64.6443 22.6792C64.2363 22.6792 63.8634 22.8199 63.5258 23.0873C63.1951 23.3616 62.977 23.7134 62.8715 24.1566C62.8223 24.3606 62.7941 24.5295 62.7941 24.6631V25.9154C62.7941 26.4571 62.963 26.9214 63.2936 27.2943C63.6243 27.6671 64.0604 27.8571 64.5951 27.8571C65.2212 27.8571 65.7137 27.6109 66.0584 27.1325C66.4172 26.647 66.586 26.0139 66.586 25.2189Z" fill="black"/>
<path d="M77.9197 26.0843C77.9197 26.9707 77.6101 27.6883 76.9981 28.2441C76.3227 28.8491 75.38 29.1516 74.17 29.1516C73.0514 29.1516 72.1579 28.9335 71.4825 28.5044L71.8695 27.1185C72.6011 27.5476 73.4031 27.7657 74.2755 27.7657C74.9016 27.7657 75.3941 27.625 75.7388 27.3436C76.0905 27.0622 76.2664 26.6823 76.2664 26.2109C76.2664 25.7888 76.1187 25.4371 75.8373 25.1486C75.5488 24.8602 75.0704 24.5929 74.4021 24.3466C72.566 23.6642 71.6584 22.6723 71.6584 21.3708C71.6584 20.5195 71.982 19.8231 72.6222 19.2743C73.2624 18.7326 74.1137 18.4583 75.176 18.4583C76.1187 18.4583 76.9066 18.6201 77.5327 18.9507L77.1106 20.3014C76.5197 19.9849 75.8584 19.8231 75.1127 19.8231C74.5287 19.8231 74.0644 19.9708 73.7338 20.2522C73.4594 20.5125 73.3187 20.822 73.3187 21.1949C73.3187 21.6029 73.4805 21.9477 73.7971 22.208C74.0715 22.4542 74.578 22.7215 75.3096 23.01C76.2031 23.3688 76.8574 23.7909 77.2795 24.2763C77.7086 24.7617 77.9197 25.3667 77.9197 26.0843Z" fill="black"/>
<path d="M83.4362 22.7564H81.6V26.3936C81.6 27.3152 81.9236 27.7795 82.5709 27.7795C82.8663 27.7795 83.1126 27.7514 83.3096 27.7021L83.3588 28.9684C83.0282 29.088 82.599 29.1514 82.0643 29.1514C81.403 29.1514 80.8965 28.9473 80.5237 28.5463C80.1508 28.1453 79.9679 27.47 79.9679 26.5273V22.7494H78.8774V21.5042H79.9679V20.1324L81.6 19.6399V21.5042H83.4362V22.7564Z" fill="black"/>
<path d="M91.6953 25.1911C91.6953 26.3448 91.3646 27.2875 90.7104 28.0262C90.0209 28.786 89.1064 29.1659 87.9667 29.1659C86.8692 29.1659 85.9898 28.8001 85.3355 28.0755C84.6813 27.3508 84.3577 26.4292 84.3577 25.3177C84.3577 24.1569 84.6954 23.2072 85.3637 22.4685C86.0391 21.7298 86.9466 21.3569 88.0863 21.3569C89.1838 21.3569 90.0702 21.7228 90.7385 22.4544C91.3787 23.1579 91.6953 24.0725 91.6953 25.1911ZM89.9717 25.2262C89.9717 24.5368 89.8239 23.9529 89.5285 23.4604C89.1767 22.8624 88.6772 22.567 88.03 22.567C87.3617 22.567 86.8481 22.8624 86.5034 23.4604C86.2009 23.9529 86.0602 24.5509 86.0602 25.2614C86.0602 25.9509 86.2079 26.5418 86.5034 27.0272C86.8622 27.6252 87.3687 27.9207 88.0159 27.9207C88.6491 27.9207 89.1486 27.6182 89.5144 27.0132C89.8169 26.5066 89.9717 25.9157 89.9717 25.2262Z" fill="black"/>
<path d="M97.1109 22.9677C96.9491 22.9395 96.7732 22.9255 96.5833 22.9255C95.9994 22.9255 95.5421 23.1436 95.2255 23.5868C94.9511 23.9737 94.8104 24.4732 94.8104 25.0641V28.9968H93.1431V23.8611C93.1431 22.9958 93.129 22.2079 93.0939 21.5044H94.5431L94.6064 22.9395H94.6557C94.8315 22.4471 95.1059 22.0461 95.4858 21.7506C95.8587 21.4833 96.2597 21.3496 96.6888 21.3496C96.8436 21.3496 96.9843 21.3637 97.1039 21.3777L97.1109 22.9677Z" fill="black"/>
<path d="M104.556 24.8957C104.556 25.1911 104.535 25.4444 104.493 25.6484H99.4977C99.5188 26.3871 99.758 26.9569 100.222 27.3439C100.644 27.6886 101.186 27.8645 101.854 27.8645C102.593 27.8645 103.268 27.7449 103.874 27.5127L104.134 28.6665C103.423 28.976 102.586 29.1308 101.622 29.1308C100.461 29.1308 99.5469 28.7861 98.8856 28.1037C98.2243 27.4213 97.8937 26.4997 97.8937 25.3529C97.8937 24.2273 98.2032 23.2846 98.8223 22.5319C99.4695 21.7299 100.342 21.3289 101.439 21.3289C102.516 21.3289 103.339 21.7299 103.888 22.5319C104.331 23.1791 104.556 23.96 104.556 24.8957ZM102.966 24.4665C102.98 23.9741 102.867 23.5449 102.642 23.1861C102.354 22.7218 101.911 22.4897 101.32 22.4897C100.778 22.4897 100.335 22.7148 99.9972 23.165C99.7228 23.5238 99.554 23.96 99.5047 24.4595L102.966 24.4665Z" fill="black"/>
<path d="M47.2457 14.8917H46.3734L45.895 13.3932H44.2347L43.7774 14.8917H42.9332L44.5724 9.78418H45.5855L47.2457 14.8917ZM45.7473 12.76L45.3181 11.4234C45.2759 11.2897 45.1915 10.9661 45.0578 10.4596H45.0438C44.9875 10.6776 44.9171 10.9942 44.7975 11.4234L44.3754 12.76H45.7473Z" fill="black"/>
<path d="M51.3546 11.2061L49.9616 14.8925H49.1667L47.8159 11.2061H48.6953L49.3214 13.1548C49.427 13.4784 49.5184 13.7879 49.5888 14.0834H49.6099C49.6732 13.8161 49.7646 13.5065 49.8772 13.1548L50.4963 11.2061H51.3546Z" fill="black"/>
<path d="M54.3241 14.8923L54.2608 14.4702H54.2397C53.9864 14.8079 53.6277 14.9767 53.1633 14.9767C52.502 14.9767 52.0377 14.5124 52.0377 13.8933C52.0377 12.9858 52.8257 12.5144 54.1905 12.5144V12.4441C54.1905 11.9587 53.9302 11.7195 53.4236 11.7195C53.0578 11.7195 52.7412 11.8109 52.4598 11.9938L52.291 11.4592C52.6287 11.2481 53.0578 11.1426 53.5573 11.1426C54.5211 11.1426 55.0065 11.6491 55.0065 12.6692V14.027C55.0065 14.3998 55.0206 14.6883 55.0628 14.9064L54.3241 14.8923ZM54.2116 13.0561C53.304 13.0561 52.8468 13.2742 52.8468 13.8018C52.8468 14.1888 53.0789 14.3787 53.4096 14.3787C53.8246 14.3787 54.2116 14.0621 54.2116 13.626V13.0561Z" fill="black"/>
<path d="M56.8278 10.6012C56.5535 10.6012 56.3424 10.3901 56.3424 10.1087C56.3424 9.82731 56.5605 9.62329 56.8419 9.62329C57.1233 9.62329 57.3484 9.82731 57.3414 10.1087C57.3414 10.4042 57.1303 10.6012 56.8278 10.6012ZM56.4339 11.2062H57.2499V14.8856H56.4339V11.2062Z" fill="black"/>
<path d="M58.7058 9.51709H59.5219V14.8849H58.7058V9.51709Z" fill="black"/>
<path d="M62.997 14.892L62.9337 14.4699H62.9126C62.6593 14.8076 62.3005 14.9764 61.8362 14.9764C61.1749 14.9764 60.7106 14.5121 60.7106 13.893C60.7106 12.9855 61.4985 12.5141 62.8633 12.5141V12.4438C62.8633 11.9584 62.603 11.7192 62.0965 11.7192C61.7307 11.7192 61.4141 11.8106 61.1327 11.9935L60.9638 11.4518C61.3015 11.2408 61.7307 11.1353 62.2302 11.1353C63.194 11.1353 63.6794 11.6418 63.6794 12.6619V14.0196C63.6794 14.3925 63.6935 14.6809 63.7286 14.899H62.997V14.892ZM62.8844 13.0558C61.9769 13.0558 61.5196 13.2739 61.5196 13.8016C61.5196 14.1885 61.7518 14.3784 62.0824 14.3784C62.4975 14.3784 62.8844 14.0619 62.8844 13.6257V13.0558Z" fill="black"/>
<path d="M66.9993 14.9763C66.4787 14.9763 66.0918 14.7582 65.8385 14.3221H65.8245L65.7752 14.8919H65.0787C65.0998 14.5964 65.1069 14.2658 65.1069 13.9V9.51709H65.93V11.7472H65.9441C66.1903 11.3392 66.5772 11.1352 67.1189 11.1352C68.0053 11.1352 68.6244 11.895 68.6244 12.9995C68.6244 14.1392 67.935 14.9763 66.9993 14.9763ZM66.8305 11.7754C66.3591 11.7754 65.93 12.1834 65.93 12.7532V13.4005C65.93 13.907 66.3169 14.3221 66.8164 14.3221C67.4285 14.3221 67.7943 13.8226 67.7943 13.0276C67.7943 12.2819 67.4144 11.7754 66.8305 11.7754Z" fill="black"/>
<path d="M69.8346 9.51709H70.6507V14.8849H69.8346V9.51709Z" fill="black"/>
<path d="M75.1045 13.2452H72.6493C72.6633 13.9417 73.1276 14.3356 73.8101 14.3356C74.1759 14.3356 74.5065 14.2723 74.802 14.1598L74.9286 14.7296C74.5839 14.8844 74.1759 14.9547 73.6975 14.9547C72.5437 14.9547 71.8613 14.2301 71.8613 13.0975C71.8613 11.9719 72.5578 11.1206 73.606 11.1206C74.5417 11.1206 75.1397 11.8171 75.1397 12.8723C75.1397 13.0201 75.1327 13.1467 75.1045 13.2452ZM74.3588 12.6613C74.3588 12.0915 74.0704 11.6904 73.5498 11.6904C73.0784 11.6904 72.7126 12.0985 72.6563 12.6613H74.3588Z" fill="black"/>
<path d="M80.0657 14.9764C78.9893 14.9764 78.2928 14.1744 78.2928 13.084C78.2928 11.9443 79.0034 11.1353 80.129 11.1353C81.1913 11.1353 81.9019 11.9021 81.9019 13.0207C81.9019 14.1674 81.1702 14.9764 80.0657 14.9764ZM80.1009 11.7332C79.5099 11.7332 79.13 12.289 79.13 13.0558C79.13 13.8156 79.517 14.3644 80.0938 14.3644C80.6707 14.3644 81.0576 13.7734 81.0576 13.0347C81.0506 12.289 80.6777 11.7332 80.1009 11.7332Z" fill="black"/>
<path d="M86.2976 14.8917H85.4816V12.7741C85.4816 12.1199 85.2283 11.7963 84.7358 11.7963C84.2504 11.7963 83.9198 12.2113 83.9198 12.6968V14.8847H83.1037V12.2606C83.1037 11.937 83.0967 11.5852 83.0756 11.2053H83.7931L83.8283 11.7752H83.8494C84.0675 11.3812 84.5178 11.1279 85.0173 11.1279C85.7911 11.1279 86.2976 11.7189 86.2976 12.6827V14.8917Z" fill="black"/>
<path d="M91.6518 11.8252H90.7513V13.6121C90.7513 14.0694 90.9131 14.2945 91.2297 14.2945C91.3704 14.2945 91.497 14.2804 91.5955 14.2593L91.6166 14.8784C91.4548 14.9417 91.2437 14.9699 90.9834 14.9699C90.3362 14.9699 89.9563 14.6111 89.9563 13.6824V11.8252H89.4216V11.2131H89.9563V10.5377L90.7583 10.2915V11.2061H91.6588V11.8252" fill="black"/>
<path d="M95.9862 14.8919H95.1701V12.7884C95.1701 12.1271 94.9168 11.7965 94.4244 11.7965C94.0023 11.7965 93.6083 12.0849 93.6083 12.6688V14.8849H92.7922V9.51709H93.6083V11.7261H93.6224C93.8827 11.3251 94.2485 11.1281 94.7269 11.1281C95.5078 11.1281 95.9862 11.7331 95.9862 12.697V14.8919Z" fill="black"/>
<path d="M100.165 13.2452H97.7093C97.7234 13.9417 98.1877 14.3356 98.8701 14.3356C99.2359 14.3356 99.5666 14.2723 99.8621 14.1598L99.9887 14.7296C99.644 14.8844 99.2359 14.9547 98.7576 14.9547C97.6038 14.9547 96.9214 14.2301 96.9214 13.0975C96.9214 11.9719 97.6179 11.1206 98.6661 11.1206C99.6018 11.1206 100.2 11.8171 100.2 12.8723C100.2 13.0201 100.193 13.1467 100.165 13.2452ZM99.4188 12.6613C99.4188 12.0915 99.1304 11.6904 98.6098 11.6904C98.1385 11.6904 97.7656 12.0985 97.7164 12.6613H99.4188Z" fill="black"/>
</svg>
