<svg width="123" height="41" viewBox="0 0 123 41" fill="none" xmlns="http://www.w3.org/2000/svg">
<g clip-path="url(#clip0_1_716)">
<rect y="0.666992" width="123" height="39.9594" rx="7.49239" fill="white" fill-opacity="0.85"/>
<path opacity="0.54" d="M59.3307 18.6048C57.161 18.6048 55.3974 20.2524 55.3974 22.5266C55.3974 24.7891 57.161 26.4483 59.3307 26.4483C61.5004 26.4483 63.2641 24.7891 63.2641 22.5266C63.2641 20.264 61.5004 18.6048 59.3307 18.6048ZM59.3307 24.9052C58.1472 24.9052 57.1146 23.9189 57.1146 22.5266C57.1146 21.111 58.1356 20.148 59.3307 20.148C60.5258 20.148 61.5469 21.111 61.5469 22.5266C61.5353 23.9189 60.5142 24.9052 59.3307 24.9052ZM69.8661 19.4866H69.8081C69.4252 19.0225 68.6826 18.6048 67.7428 18.6048C65.7819 18.6048 63.9834 20.3337 63.9834 22.5382C63.9834 24.7311 65.7819 26.4483 67.7428 26.4483C68.6826 26.4483 69.4252 26.0306 69.8081 25.5549H69.8661V26.1235C69.8661 27.6202 69.0655 28.4208 67.7776 28.4208C66.7217 28.4208 66.072 27.6666 65.8051 27.0285L64.3083 27.655C64.7376 28.6993 65.8863 29.9756 67.7892 29.9756C69.8081 29.9756 71.5137 28.7921 71.5137 25.8914V18.8485H69.8777L69.8661 19.4866ZM67.8936 24.9052C66.7101 24.9052 65.7123 23.9073 65.7123 22.5382C65.7123 21.1575 66.7101 20.148 67.8936 20.148C69.0655 20.148 69.9821 21.1575 69.9821 22.5382C69.9821 23.9189 69.0655 24.9052 67.8936 24.9052ZM50.7446 18.6048C48.5749 18.6048 46.8113 20.2524 46.8113 22.5266C46.8113 24.7891 48.5749 26.4483 50.7446 26.4483C52.9144 26.4483 54.678 24.7891 54.678 22.5266C54.678 20.264 52.9144 18.6048 50.7446 18.6048ZM50.7446 24.9052C49.5611 24.9052 48.5285 23.9189 48.5285 22.5266C48.5285 21.111 49.5495 20.148 50.7446 20.148C51.9281 20.148 52.9608 21.111 52.9608 22.5266C52.9492 23.9189 51.9281 24.9052 50.7446 24.9052ZM40.5226 19.7999V21.4591H44.5023C44.3863 22.399 44.073 23.0835 43.5973 23.5592C43.0172 24.1394 42.1121 24.7775 40.5226 24.7775C38.0744 24.7775 36.1599 22.8051 36.1599 20.3569C36.1599 17.9087 38.0744 15.9362 40.5226 15.9362C41.8453 15.9362 42.8083 16.4583 43.5277 17.1197L44.6996 15.9478C43.7017 14.9964 42.379 14.2654 40.5226 14.2654C37.1693 14.2654 34.3383 17.0036 34.3383 20.3569C34.3383 23.7101 37.1577 26.4483 40.5226 26.4483C42.3326 26.4483 43.7017 25.8566 44.7692 24.7427C45.8715 23.6405 46.2079 22.0973 46.2079 20.8558C46.2079 20.4729 46.1731 20.1132 46.1151 19.8115L40.5226 19.7999ZM82.2927 21.111C81.9678 20.2292 80.97 18.6164 78.9395 18.6164C76.9206 18.6164 75.2382 20.206 75.2382 22.5382C75.2382 24.7311 76.8974 26.4599 79.1251 26.4599C80.9236 26.4599 81.9678 25.3577 82.3971 24.7195L81.0628 23.8261C80.6219 24.4759 80.0069 24.9052 79.1367 24.9052C78.2665 24.9052 77.64 24.4991 77.2339 23.7217L82.4783 21.552L82.2927 21.111ZM76.9554 22.4106C76.909 20.8906 78.1273 20.1248 79.0091 20.1248C79.6937 20.1248 80.2738 20.4613 80.4594 20.9602L76.9554 22.4106ZM72.6856 26.2163H74.4028V14.6947H72.6856V26.2163ZM90.3682 14.6947H86.2492V26.2163H87.9665V21.8536H90.3682C92.2711 21.8536 94.1508 20.4729 94.1508 18.2684C94.1508 16.0754 92.2711 14.6947 90.3682 14.6947ZM90.4147 20.2292H87.9665V16.2843H90.4147C91.7026 16.2843 92.4336 17.3517 92.4336 18.2568C92.4336 19.1618 91.7026 20.2292 90.4147 20.2292ZM95.1022 26.2163H96.8194V14.6947H95.1022V26.2163ZM101.043 18.5816C99.8013 18.5816 98.5018 19.127 97.9681 20.3453L99.4997 20.9834C99.8245 20.3453 100.428 20.1364 101.066 20.1364C101.959 20.1364 102.864 20.6701 102.876 21.6216V21.7376C102.563 21.5636 101.901 21.2967 101.078 21.2967C99.4301 21.2967 97.7592 22.2017 97.7592 23.8957C97.7592 25.4389 99.1052 26.4251 100.625 26.4251C101.785 26.4251 102.424 25.903 102.818 25.2997H102.876V26.1931H104.535V21.7724C104.547 19.7303 103.015 18.5816 101.043 18.5816ZM100.834 24.9052C100.265 24.9052 99.4881 24.6267 99.4881 23.9305C99.4881 23.0371 100.463 22.7006 101.31 22.7006C102.064 22.7006 102.424 22.8631 102.876 23.0835C102.748 24.151 101.832 24.9052 100.834 24.9052ZM110.592 18.8369L108.619 23.8377H108.561L106.519 18.8369H104.663L107.726 25.8218L105.974 29.7203H107.772L112.506 18.8485H110.592V18.8369Z" fill="black"/>
<path d="M10.8178 10.7498C10.5858 10.9935 10.4465 11.3763 10.4465 11.8637V29.4187C10.4465 29.906 10.5858 30.2889 10.8178 30.5326L10.8758 30.5906L20.715 20.7514V20.5194L10.8758 10.6802L10.8178 10.7498Z" fill="url(#paint0_linear_1_716)"/>
<path d="M23.9889 24.0353L20.7169 20.7517V20.5197L24.0005 17.2361L24.0701 17.2825L27.9571 19.487C29.0709 20.1136 29.0709 21.1462 27.9571 21.7844L24.0701 23.9889L23.9889 24.0353Z" fill="url(#paint1_linear_1_716)"/>
<path d="M24.0701 23.988L20.7169 20.6348L10.8197 30.532C11.1794 30.9149 11.7943 30.9729 12.4673 30.5784L24.0701 23.988Z" fill="url(#paint2_linear_1_716)"/>
<path d="M24.0701 17.2929L12.4673 10.7025C11.7827 10.3196 11.1794 10.366 10.8197 10.7489L20.7169 20.6461L24.0701 17.2929Z" fill="url(#paint3_linear_1_716)"/>
<path opacity="0.2" d="M23.9889 23.9187L12.4673 30.4627C11.8175 30.834 11.249 30.8108 10.8777 30.4743L10.8197 30.5323L10.8777 30.5903C11.249 30.9268 11.8291 30.95 12.4673 30.5787L24.0701 23.9883L23.9889 23.9187Z" fill="black"/>
<path opacity="0.12" d="M10.8178 30.4159C10.5858 30.1723 10.4465 29.7894 10.4465 29.3021V29.4181C10.4465 29.9054 10.5858 30.2883 10.8178 30.532L10.8758 30.474L10.8178 30.4159ZM27.9436 21.6674L23.987 23.9184L24.0566 23.988L27.9436 21.7834C28.5005 21.4702 28.779 21.0525 28.779 20.6348C28.7326 21.0177 28.4541 21.3773 27.9436 21.6674Z" fill="black"/>
<path opacity="0.25" d="M12.4654 10.8078L27.9436 19.6027C28.4425 19.8928 28.7326 20.2525 28.779 20.6353C28.779 20.2176 28.5005 19.7999 27.9436 19.4867L12.4654 10.6917C11.3516 10.0652 10.4465 10.5873 10.4465 11.852V11.968C10.4465 10.7033 11.3516 10.1812 12.4654 10.8078Z" fill="white"/>
</g>
<rect x="0.312183" y="0.979175" width="122.376" height="39.335" rx="7.1802" stroke="#333333" stroke-opacity="0.5" stroke-width="0.624366"/>
<defs>
<linearGradient id="paint0_linear_1_716" x1="19.8327" y1="11.6727" x2="6.50842" y2="24.997" gradientUnits="userSpaceOnUse">
<stop stop-color="#00A0FF"/>
<stop offset="0.007" stop-color="#00A1FF"/>
<stop offset="0.26" stop-color="#00BEFF"/>
<stop offset="0.512" stop-color="#00D2FF"/>
<stop offset="0.76" stop-color="#00DFFF"/>
<stop offset="1" stop-color="#00E3FF"/>
</linearGradient>
<linearGradient id="paint1_linear_1_716" x1="29.3933" y1="20.6415" x2="10.1824" y2="20.6415" gradientUnits="userSpaceOnUse">
<stop stop-color="#FFE000"/>
<stop offset="0.409" stop-color="#FFBD00"/>
<stop offset="0.775" stop-color="#FFA500"/>
<stop offset="1" stop-color="#FF9C00"/>
</linearGradient>
<linearGradient id="paint2_linear_1_716" x1="22.2449" y1="22.4658" x2="4.17616" y2="40.5345" gradientUnits="userSpaceOnUse">
<stop stop-color="#FF3A44"/>
<stop offset="1" stop-color="#C31162"/>
</linearGradient>
<linearGradient id="paint3_linear_1_716" x1="8.32742" y1="4.89763" x2="16.3959" y2="12.9661" gradientUnits="userSpaceOnUse">
<stop stop-color="#32A071"/>
<stop offset="0.069" stop-color="#2DA771"/>
<stop offset="0.476" stop-color="#15CF74"/>
<stop offset="0.801" stop-color="#06E775"/>
<stop offset="1" stop-color="#00F076"/>
</linearGradient>
<clipPath id="clip0_1_716">
<rect y="0.666992" width="123" height="39.9594" rx="7.49239" fill="white"/>
</clipPath>
</defs>
</svg>
