<svg width="25" height="21" viewBox="0 0 25 21" fill="none" xmlns="http://www.w3.org/2000/svg">
<g clip-path="url(#clip0_1_709)">
<path d="M12.5 2.46777C15.1719 2.46777 15.4883 2.47949 16.5391 2.52637C17.5156 2.56934 18.043 2.7334 18.3945 2.87012C18.8594 3.0498 19.1953 3.26855 19.543 3.61621C19.8945 3.96777 20.1094 4.29981 20.2891 4.76465C20.4258 5.11621 20.5898 5.64746 20.6328 6.62012C20.6797 7.6748 20.6914 7.99121 20.6914 10.6592C20.6914 13.3311 20.6797 13.6475 20.6328 14.6982C20.5898 15.6748 20.4258 16.2022 20.2891 16.5537C20.1094 17.0186 19.8906 17.3545 19.543 17.7022C19.1914 18.0537 18.8594 18.2686 18.3945 18.4482C18.043 18.585 17.5117 18.749 16.5391 18.792C15.4844 18.8389 15.168 18.8506 12.5 18.8506C9.82813 18.8506 9.51172 18.8389 8.46094 18.792C7.48438 18.749 6.95703 18.585 6.60547 18.4482C6.14063 18.2686 5.80469 18.0498 5.45703 17.7022C5.10547 17.3506 4.89063 17.0186 4.71094 16.5537C4.57422 16.2022 4.41016 15.6709 4.36719 14.6982C4.32031 13.6436 4.30859 13.3271 4.30859 10.6592C4.30859 7.98731 4.32031 7.6709 4.36719 6.62012C4.41016 5.64355 4.57422 5.11621 4.71094 4.76465C4.89063 4.29981 5.10938 3.96387 5.45703 3.61621C5.80859 3.26465 6.14063 3.0498 6.60547 2.87012C6.95703 2.7334 7.48828 2.56934 8.46094 2.52637C9.51172 2.47949 9.82813 2.46777 12.5 2.46777ZM12.5 0.666992C9.78516 0.666992 9.44531 0.678711 8.37891 0.725586C7.31641 0.772461 6.58594 0.944336 5.95313 1.19043C5.29297 1.44824 4.73438 1.78809 4.17969 2.34668C3.62109 2.90137 3.28125 3.45996 3.02344 4.11621C2.77734 4.75293 2.60547 5.47949 2.55859 6.54199C2.51172 7.6123 2.5 7.95215 2.5 10.667C2.5 13.3818 2.51172 13.7217 2.55859 14.7881C2.60547 15.8506 2.77734 16.5811 3.02344 17.2139C3.28125 17.874 3.62109 18.4326 4.17969 18.9873C4.73438 19.542 5.29297 19.8857 5.94922 20.1396C6.58594 20.3857 7.3125 20.5576 8.375 20.6045C9.44141 20.6514 9.78125 20.6631 12.4961 20.6631C15.2109 20.6631 15.5508 20.6514 16.6172 20.6045C17.6797 20.5576 18.4102 20.3857 19.043 20.1396C19.6992 19.8857 20.2578 19.542 20.8125 18.9873C21.3672 18.4326 21.7109 17.874 21.9648 17.2178C22.2109 16.5811 22.3828 15.8545 22.4297 14.792C22.4766 13.7256 22.4883 13.3857 22.4883 10.6709C22.4883 7.95606 22.4766 7.61621 22.4297 6.54981C22.3828 5.48731 22.2109 4.75684 21.9648 4.12402C21.7188 3.45996 21.3789 2.90137 20.8203 2.34668C20.2656 1.79199 19.707 1.44824 19.0508 1.19434C18.4141 0.948242 17.6875 0.776367 16.625 0.729492C15.5547 0.678711 15.2148 0.666992 12.5 0.666992Z" fill="#333333" fill-opacity="0.5"/>
<path d="M12.5 5.53027C9.66406 5.53027 7.36328 7.83105 7.36328 10.667C7.36328 13.5029 9.66406 15.8037 12.5 15.8037C15.3359 15.8037 17.6367 13.5029 17.6367 10.667C17.6367 7.83105 15.3359 5.53027 12.5 5.53027ZM12.5 13.999C10.6602 13.999 9.16797 12.5068 9.16797 10.667C9.16797 8.82715 10.6602 7.33496 12.5 7.33496C14.3398 7.33496 15.832 8.82715 15.832 10.667C15.832 12.5068 14.3398 13.999 12.5 13.999Z" fill="#333333" fill-opacity="0.5"/>
<path d="M19.0391 5.32715C19.0391 5.99121 18.5 6.52637 17.8398 6.52637C17.1758 6.52637 16.6406 5.98731 16.6406 5.32715C16.6406 4.66309 17.1797 4.12793 17.8398 4.12793C18.5 4.12793 19.0391 4.66699 19.0391 5.32715Z" fill="#333333" fill-opacity="0.5"/>
</g>
<defs>
<clipPath id="clip0_1_709">
<rect width="20" height="20" fill="white" transform="translate(2.5 0.666992)"/>
</clipPath>
</defs>
</svg>
