<svg width="25" height="21" viewBox="0 0 25 21" fill="none" xmlns="http://www.w3.org/2000/svg">
<path d="M21.0195 0.666992H3.97656C3.16016 0.666992 2.5 1.31152 2.5 2.1084V19.2217C2.5 20.0186 3.16016 20.667 3.97656 20.667H21.0195C21.8359 20.667 22.5 20.0186 22.5 19.2256V2.1084C22.5 1.31152 21.8359 0.666992 21.0195 0.666992ZM8.43359 17.71H5.46484V8.16308H8.43359V17.71ZM6.94922 6.8623C5.99609 6.8623 5.22656 6.09277 5.22656 5.14355C5.22656 4.19434 5.99609 3.4248 6.94922 3.4248C7.89844 3.4248 8.66797 4.19434 8.66797 5.14355C8.66797 6.08887 7.89844 6.8623 6.94922 6.8623ZM19.543 17.71H16.5781V13.0693C16.5781 11.9639 16.5586 10.5381 15.0352 10.5381C13.4922 10.5381 13.2578 11.7451 13.2578 12.9912V17.71H10.2969V8.16308H13.1406V9.46777H13.1797C13.5742 8.71777 14.543 7.9248 15.9844 7.9248C18.9883 7.9248 19.543 9.90137 19.543 12.4717V17.71Z" fill="#333333" fill-opacity="0.5"/>
</svg>
