<svg width="197" height="65" viewBox="0 0 197 65" fill="none" xmlns="http://www.w3.org/2000/svg">
<g clip-path="url(#clip0_1_623)">
<rect y="0.666992" width="197" height="64" rx="12" fill="white" fill-opacity="0.85"/>
<path opacity="0.54" d="M95.0249 29.3965C91.5498 29.3965 88.7252 32.0353 88.7252 35.6777C88.7252 39.3014 91.5498 41.9588 95.0249 41.9588C98.5 41.9588 101.325 39.3014 101.325 35.6777C101.325 32.0539 98.5 29.3965 95.0249 29.3965ZM95.0249 39.4872C93.1294 39.4872 91.4755 37.9077 91.4755 35.6777C91.4755 33.4105 93.1108 31.8681 95.0249 31.8681C96.939 31.8681 98.5743 33.4105 98.5743 35.6777C98.5558 37.9077 96.9204 39.4872 95.0249 39.4872ZM111.899 30.8088H111.806C111.192 30.0655 110.003 29.3965 108.498 29.3965C105.357 29.3965 102.477 32.1654 102.477 35.6962C102.477 39.2085 105.357 41.9588 108.498 41.9588C110.003 41.9588 111.192 41.2898 111.806 40.5279H111.899V41.4385C111.899 43.8357 110.616 45.118 108.554 45.118C106.863 45.118 105.822 43.9101 105.394 42.888L102.997 43.8915C103.685 45.564 105.525 47.6082 108.572 47.6082C111.806 47.6082 114.537 45.7127 114.537 41.0668V29.7867H111.917L111.899 30.8088ZM108.739 39.4872C106.844 39.4872 105.246 37.8891 105.246 35.6962C105.246 33.4848 106.844 31.8681 108.739 31.8681C110.616 31.8681 112.084 33.4848 112.084 35.6962C112.084 37.9077 110.616 39.4872 108.739 39.4872ZM81.2732 29.3965C77.7981 29.3965 74.9735 32.0353 74.9735 35.6777C74.9735 39.3014 77.7981 41.9588 81.2732 41.9588C84.7483 41.9588 87.573 39.3014 87.573 35.6777C87.573 32.0539 84.7483 29.3965 81.2732 29.3965ZM81.2732 39.4872C79.3777 39.4872 77.7238 37.9077 77.7238 35.6777C77.7238 33.4105 79.3591 31.8681 81.2732 31.8681C83.1687 31.8681 84.8226 33.4105 84.8226 35.6777C84.8041 37.9077 83.1687 39.4872 81.2732 39.4872ZM64.9013 31.3106V33.968H71.2754C71.0895 35.4732 70.5878 36.5697 69.8259 37.3316C68.8967 38.2607 67.4472 39.2828 64.9013 39.2828C60.9802 39.2828 57.9139 36.1236 57.9139 32.2026C57.9139 28.2815 60.9802 25.1223 64.9013 25.1223C67.0198 25.1223 68.5622 25.9585 69.7144 27.0178L71.5913 25.1409C69.9931 23.617 67.8746 22.4463 64.9013 22.4463C59.5307 22.4463 54.9963 26.832 54.9963 32.2026C54.9963 37.5732 59.5121 41.9588 64.9013 41.9588C67.8003 41.9588 69.9931 41.0111 71.7028 39.2271C73.4682 37.4617 74.0071 34.9901 74.0071 33.0016C74.0071 32.3884 73.9514 31.8123 73.8585 31.3291L64.9013 31.3106ZM131.801 33.4105C131.281 31.9981 129.683 29.4151 126.431 29.4151C123.197 29.4151 120.503 31.961 120.503 35.6962C120.503 39.2085 123.16 41.9774 126.728 41.9774C129.609 41.9774 131.281 40.212 131.969 39.1899L129.832 37.759C129.125 38.7997 128.14 39.4872 126.747 39.4872C125.353 39.4872 124.349 38.8368 123.699 37.5917L132.099 34.1166L131.801 33.4105ZM123.253 35.4918C123.179 33.0574 125.13 31.8309 126.542 31.8309C127.639 31.8309 128.568 32.3698 128.865 33.1689L123.253 35.4918ZM116.414 41.5872H119.165V23.1339H116.414V41.5872ZM144.735 23.1339H138.138V41.5872H140.889V34.5998H144.735C147.783 34.5998 150.794 32.3884 150.794 28.8576C150.794 25.3453 147.783 23.1339 144.735 23.1339ZM144.81 31.9981H140.889V25.6798H144.81C146.873 25.6798 148.043 27.3895 148.043 28.839C148.043 30.2885 146.873 31.9981 144.81 31.9981ZM152.317 41.5872H155.068V23.1339H152.317V41.5872ZM161.832 29.3593C159.844 29.3593 157.762 30.2327 156.908 32.184L159.361 33.2061C159.881 32.184 160.847 31.8495 161.869 31.8495C163.3 31.8495 164.75 32.7043 164.768 34.2281V34.414C164.267 34.1352 163.207 33.7078 161.888 33.7078C159.249 33.7078 156.573 35.1573 156.573 37.8705C156.573 40.3421 158.729 41.9217 161.163 41.9217C163.021 41.9217 164.044 41.0854 164.675 40.1191H164.768V41.55H167.426V34.4697C167.444 31.1991 164.991 29.3593 161.832 29.3593ZM161.498 39.4872C160.587 39.4872 159.342 39.0412 159.342 37.9262C159.342 36.4953 160.903 35.9564 162.26 35.9564C163.467 35.9564 164.044 36.2166 164.768 36.5696C164.564 38.2793 163.096 39.4872 161.498 39.4872ZM177.126 29.7681L173.967 37.7776H173.874L170.603 29.7681H167.63L172.536 40.9553L169.73 47.1993H172.61L180.193 29.7867H177.126V29.7681Z" fill="black"/>
<path d="M17.3278 16.8156C16.9562 17.2059 16.7332 17.8191 16.7332 18.5996V46.7162C16.7332 47.4967 16.9562 48.11 17.3278 48.5003L17.4207 48.5932L33.1794 32.8345V32.4628L17.4207 16.7041L17.3278 16.8156Z" fill="url(#paint0_linear_1_623)"/>
<path d="M38.42 38.0935L33.1794 32.8344V32.4627L38.4385 27.2036L38.55 27.2779L44.7755 30.8088C46.5595 31.8123 46.5595 33.4662 44.7755 34.4883L38.55 38.0191L38.42 38.0935Z" fill="url(#paint1_linear_1_623)"/>
<path d="M38.5501 38.019L33.1795 32.6484L17.3279 48.5001C17.904 49.1133 18.8889 49.2062 19.9667 48.5744L38.5501 38.019Z" fill="url(#paint2_linear_1_623)"/>
<path d="M38.5501 27.2965L19.9667 16.7411C18.8703 16.1279 17.904 16.2022 17.3279 16.8154L33.1795 32.6671L38.5501 27.2965Z" fill="url(#paint3_linear_1_623)"/>
<path opacity="0.2" d="M38.42 37.9075L19.9667 48.3885C18.9261 48.9832 18.0155 48.946 17.4208 48.4071L17.3279 48.5L17.4208 48.5929C18.0155 49.1318 18.9446 49.169 19.9667 48.5743L38.5501 38.019L38.42 37.9075Z" fill="black"/>
<path opacity="0.12" d="M17.3278 48.3142C16.9562 47.924 16.7332 47.3107 16.7332 46.5302V46.716C16.7332 47.4965 16.9562 48.1098 17.3278 48.5001L17.4207 48.4071L17.3278 48.3142ZM44.7569 34.3024L38.4199 37.9075L38.5315 38.019L44.7569 34.4882C45.6489 33.9864 46.0949 33.3174 46.0949 32.6484C46.0205 33.2617 45.5745 33.8378 44.7569 34.3024Z" fill="black"/>
<path opacity="0.25" d="M19.9667 16.9085L44.7569 30.9947C45.556 31.4592 46.0205 32.0353 46.0949 32.6486C46.0949 31.9796 45.6489 31.3106 44.7569 30.8088L19.9667 16.7226C18.1827 15.7191 16.7332 16.5554 16.7332 18.581V18.7668C16.7332 16.7412 18.1827 15.905 19.9667 16.9085Z" fill="white"/>
</g>
<rect x="0.5" y="1.16699" width="196" height="63" rx="11.5" stroke="#333333" stroke-opacity="0.5"/>
<defs>
<linearGradient id="paint0_linear_1_623" x1="31.7664" y1="18.2937" x2="10.4258" y2="39.6343" gradientUnits="userSpaceOnUse">
<stop stop-color="#00A0FF"/>
<stop offset="0.007" stop-color="#00A1FF"/>
<stop offset="0.26" stop-color="#00BEFF"/>
<stop offset="0.512" stop-color="#00D2FF"/>
<stop offset="0.76" stop-color="#00DFFF"/>
<stop offset="1" stop-color="#00E3FF"/>
</linearGradient>
<linearGradient id="paint1_linear_1_623" x1="47.0757" y1="32.6578" x2="16.307" y2="32.6578" gradientUnits="userSpaceOnUse">
<stop stop-color="#FFE000"/>
<stop offset="0.409" stop-color="#FFBD00"/>
<stop offset="0.775" stop-color="#FFA500"/>
<stop offset="1" stop-color="#FF9C00"/>
</linearGradient>
<linearGradient id="paint2_linear_1_623" x1="35.6267" y1="35.5811" x2="6.68742" y2="64.5204" gradientUnits="userSpaceOnUse">
<stop stop-color="#FF3A44"/>
<stop offset="1" stop-color="#C31162"/>
</linearGradient>
<linearGradient id="paint3_linear_1_623" x1="13.3362" y1="7.44385" x2="26.2589" y2="20.3665" gradientUnits="userSpaceOnUse">
<stop stop-color="#32A071"/>
<stop offset="0.069" stop-color="#2DA771"/>
<stop offset="0.476" stop-color="#15CF74"/>
<stop offset="0.801" stop-color="#06E775"/>
<stop offset="1" stop-color="#00F076"/>
</linearGradient>
<clipPath id="clip0_1_623">
<rect y="0.666992" width="197" height="64" rx="12" fill="white"/>
</clipPath>
</defs>
</svg>
