<svg width="127" height="26" viewBox="0 0 127 26" fill="none" xmlns="http://www.w3.org/2000/svg">
<path d="M11.7073 2.59732C12.0949 1.81709 13.208 1.81709 13.5956 2.59732L16.1395 7.71722C16.293 8.02619 16.588 8.2405 16.9292 8.29103L22.5847 9.12823C23.4465 9.25581 23.7904 10.3144 23.1682 10.9241L19.085 14.9256C18.8385 15.1671 18.7259 15.5139 18.7833 15.8541L19.7347 21.4914C19.8797 22.3505 18.9792 23.0047 18.207 22.6013L13.1396 19.9545C12.8338 19.7947 12.4691 19.7947 12.1633 19.9545L7.09593 22.6013C6.3237 23.0047 5.42325 22.3505 5.56823 21.4914L6.51963 15.8541C6.57704 15.5139 6.46437 15.1671 6.21796 14.9256L2.13473 10.9241C1.51248 10.3144 1.85642 9.25581 2.71826 9.12823L8.37366 8.29103C8.71495 8.2405 9.00993 8.02619 9.16344 7.71722L11.7073 2.59732Z" fill="#FFCC00"/>
<path d="M37.0103 2.59732C37.3979 1.81709 38.5109 1.81709 38.8986 2.59732L41.4424 7.71722C41.596 8.02619 41.8909 8.2405 42.2322 8.29103L47.8876 9.12823C48.7495 9.25581 49.0934 10.3144 48.4712 10.9241L44.3879 14.9256C44.1415 15.1671 44.0288 15.5139 44.0863 15.8541L45.0377 21.4914C45.1826 22.3505 44.2822 23.0047 43.51 22.6013L38.4425 19.9545C38.1367 19.7947 37.7721 19.7947 37.4663 19.9545L32.3989 22.6013C31.6267 23.0047 30.7262 22.3505 30.8712 21.4914L31.8226 15.8541C31.88 15.5139 31.7673 15.1671 31.5209 14.9256L27.4377 10.9241C26.8155 10.3144 27.1594 9.25581 28.0212 9.12823L33.6766 8.29103C34.0179 8.2405 34.3129 8.02619 34.4664 7.71722L37.0103 2.59732Z" fill="#FFCC00"/>
<path d="M62.313 2.59732C62.7007 1.81709 63.8137 1.81709 64.2013 2.59732L66.7452 7.71722C66.8987 8.02619 67.1937 8.2405 67.535 8.29103L73.1904 9.12823C74.0522 9.25581 74.3961 10.3144 73.7739 10.9241L69.6907 14.9256C69.4443 15.1671 69.3316 15.5139 69.389 15.8541L70.3404 21.4914C70.4854 22.3505 69.5849 23.0047 68.8127 22.6013L63.7453 19.9545C63.4395 19.7947 63.0749 19.7947 62.7691 19.9545L57.7016 22.6013C56.9294 23.0047 56.029 22.3505 56.1739 21.4914L57.1253 15.8541C57.1828 15.5139 57.0701 15.1671 56.8237 14.9256L52.7404 10.9241C52.1182 10.3144 52.4621 9.25581 53.324 9.12823L58.9794 8.29103C59.3207 8.2405 59.6156 8.02619 59.7692 7.71722L62.313 2.59732Z" fill="#FFCC00"/>
<path d="M87.616 2.59732C88.0036 1.81709 89.1167 1.81709 89.5043 2.59732L92.0482 7.71722C92.2017 8.02619 92.4966 8.2405 92.8379 8.29103L98.4933 9.12823C99.3552 9.25581 99.6991 10.3144 99.0769 10.9241L94.9936 14.9256C94.7472 15.1671 94.6346 15.5139 94.692 15.8541L95.6434 21.4914C95.7884 22.3505 94.8879 23.0047 94.1157 22.6013L89.0483 19.9545C88.7425 19.7947 88.3778 19.7947 88.072 19.9545L83.0046 22.6013C82.2324 23.0047 81.3319 22.3505 81.4769 21.4914L82.4283 15.8541C82.4857 15.5139 82.3731 15.1671 82.1266 14.9256L78.0434 10.9241C77.4212 10.3144 77.7651 9.25581 78.627 9.12823L84.2824 8.29103C84.6236 8.2405 84.9186 8.02619 85.0721 7.71722L87.616 2.59732Z" fill="#FFCC00"/>
<path d="M112.919 2.59732C113.307 1.81709 114.42 1.81709 114.807 2.59732L117.351 7.71722C117.505 8.02619 117.8 8.2405 118.141 8.29103L123.796 9.12823C124.658 9.25581 125.002 10.3144 124.38 10.9241L120.297 14.9256C120.05 15.1671 119.938 15.5139 119.995 15.8541L120.946 21.4914C121.091 22.3505 120.191 23.0047 119.419 22.6013L114.351 19.9545C114.045 19.7947 113.681 19.7947 113.375 19.9545L108.308 22.6013C107.535 23.0047 106.635 22.3505 106.78 21.4914L107.731 15.8541C107.789 15.5139 107.676 15.1671 107.43 14.9256L103.346 10.9241C102.724 10.3144 103.068 9.25581 103.93 9.12823L109.585 8.29103C109.927 8.2405 110.222 8.02619 110.375 7.71722L112.919 2.59732Z" fill="#FFCC00"/>
</svg>
