<svg width="19" height="22" viewBox="0 0 19 22" fill="none" xmlns="http://www.w3.org/2000/svg">
<path d="M14.6409 3.73611C13.9293 3.04277 13.455 2.11484 13.2777 1.09568C13.2543 0.960142 13.236 0.821995 13.223 0.686455V0.225098H9.62595V14.5011C9.62074 16.1641 8.26794 17.5117 6.60236 17.5117C6.11233 17.5117 5.65098 17.3944 5.24175 17.1885C4.74141 16.9368 4.32091 16.551 4.02723 16.0742C3.73356 15.5973 3.57829 15.0481 3.57878 14.4881C3.57878 12.8199 4.93157 11.4645 6.60236 11.4645C6.92297 11.4645 7.23054 11.514 7.51987 11.6053V7.95088C7.22011 7.90918 6.91515 7.88832 6.61279 7.88832C2.95842 7.89614 0 10.8546 0 14.5011C0 16.7897 1.16252 18.8045 2.92975 19.9905C4.01763 20.7218 5.29932 21.1113 6.61018 21.1087C10.2619 21.1087 13.2204 18.1503 13.2204 14.5011V7.20541C14.6739 8.2452 16.4169 8.80309 18.2041 8.80061V5.22705C17.6541 5.22705 17.1093 5.13843 16.5932 4.96379C16.2309 4.84128 15.5454 4.62233 14.6383 3.73611H14.6409Z" fill="#999999"/>
</svg>
