<svg width="23" height="17" viewBox="0 0 23 17" fill="none" xmlns="http://www.w3.org/2000/svg">
<path fill-rule="evenodd" clip-rule="evenodd" d="M22.5206 3.13113C22.2572 2.14318 21.4778 1.3639 20.4863 1.0968C18.6934 0.617432 11.5 0.617432 11.5 0.617432C11.5 0.617432 4.31024 0.617432 2.5137 1.0968C1.52585 1.36022 0.746471 2.13959 0.479368 3.13113C-4.50849e-08 4.92399 0 8.66702 0 8.66702C0 8.66702 -4.50849e-08 12.4102 0.479368 14.203C0.742783 15.191 1.52216 15.9702 2.5137 16.2373C4.31024 16.7167 11.5 16.7167 11.5 16.7167C11.5 16.7167 18.6934 16.7167 20.4863 16.2373C21.4742 15.9739 22.2535 15.1946 22.5206 14.203C23 12.4102 23 8.66712 23 8.66712C23 8.66712 23 4.92399 22.5206 3.13113Z" fill="#999999"/>
<path fill-rule="evenodd" clip-rule="evenodd" d="M9.20227 12.1173L15.1773 8.66687L9.20227 5.21655V12.1173Z" fill="white"/>
</svg>
